# xmcd CD database file
#
# Track frame offsets:
#	150
#	17035
#	30925
#	43527
#
# Disc length: 743 seconds
#
# Revision: 0
# Processed by: cddbd v1.4PL0 Copyright (c) Steve Scherf et al.
# Submitted via: CDex 1.50
#
DISCID=2102e504
DTITLE=Endless Road - Endless Road
DYEAR=1995
DGENRE=Country
TTITLE0=I just can't stand that
TTITLE1=Where do I belong
TTITLE2=I'm still waiting for you
TTITLE3=Poor Rose-Maree
EXTD=YEAR: 1995
EXTT0=
EXTT1=
EXTT2=
EXTT3=
PLAYORDER=
